# xmcd
#
# Track frame offsets:
#	150
#	13871
#	28702
#	50547
#	63156
#	77647
#	89123
#	102948
#	118581
#	134977
#	148284
#	162802
#	175291
#	194214
#	210656
#	223955
#
# Disc length: 3219 seconds
#
# Revision: 1
# Processed by: cddbd v1.4PL0 Copyright (c) Steve Scherf et al.
# Submitted via: audiograbber 1.82.02
#
DISCID=000c9110
DTITLE=Various Artist - Rural Aid Appeal Vol 23
DYEAR=1900
DGENRE=Country
TTITLE0=John Williamson - Frangipani Bay
TTITLE1=Troy Cassar-Daly - Long Way Home
TTITLE2=Beccy Cole - Blackwood Hill
TTITLE3=Wolverines - Proud To Be Australian
TTITLE4=Luke O'Shea - 9 Out Of 10
TTITLE5=Stict-Lee-Us - I Wouldn't Be Here
TTITLE6=Graeme Jenson - Broken Fences
TTITLE7=Limestone - Let It Rain
TTITLE8=Matt and Pauly Zarb - Girl Thing
TTITLE9=Meggan Carswell with Michael Fix - Brown Eyes and Blue
TTITLE10=Pixie Jenkins - What Would You Do
TTITLE11=Texas Rose - Lucky Girl
TTITLE12=Steve Forde and The Flange - What I'm Talkin About
TTITLE13=Josh Arnold - Brigalow
TTITLE14=Kelly Black - Perfect Boy
TTITLE15=Chrome Daddies - Virginia Belle
EXTD=
EXTT0=
EXTT1=
EXTT2=
EXTT3=
EXTT4=
EXTT5=
EXTT6=
EXTT7=
EXTT8=
EXTT9=
EXTT10=
EXTT11=
EXTT12=
EXTT13=
EXTT14=
EXTT15=
PLAYORDER=
